# exported by https://3dviewer.net
mtllib model.mtl
g Icosahedron
v 6 2.0257311121191335 0.85065080835204
v 6 0.9742688878808664 0.85065080835204
v 6.85065080835204 1.5 0.5257311121191336
v 6.525731112119134 2.35065080835204 0
v 5.474268887880866 2.35065080835204 0
v 5.14934919164796 1.5 0.5257311121191336
v 6 2.0257311121191335 -0.85065080835204
v 6 0.9742688878808664 -0.85065080835204
v 5.14934919164796 1.5 -0.5257311121191336
v 6.85065080835204 1.5 -0.5257311121191336
v 6.525731112119134 0.64934919164796 0
v 5.474268887880866 0.64934919164796 0
vn 0.3568220897730898 0 0.9341723589627157
vn 0 0.9341723589627156 0.35682208977308993
vn -0.5773502691896255 0.5773502691896258 0.5773502691896258
vn 0.5773502691896255 0.5773502691896258 0.5773502691896258
vn -0.3568220897730898 0 0.9341723589627157
vn -0.3568220897730898 0 -0.9341723589627157
vn 0.5773502691896255 0.5773502691896258 -0.5773502691896258
vn 0 0.9341723589627156 -0.35682208977308993
vn 0.3568220897730898 0 -0.9341723589627157
vn -0.5773502691896255 0.5773502691896258 -0.5773502691896258
vn 0.5773502691896256 -0.5773502691896258 0.5773502691896258
vn 0 -0.9341723589627156 0.35682208977308993
vn -0.5773502691896256 -0.5773502691896258 0.5773502691896258
vn 0 -0.9341723589627156 -0.35682208977308993
vn -0.5773502691896256 -0.5773502691896258 -0.5773502691896258
vn 0.5773502691896256 -0.5773502691896258 -0.5773502691896258
vn 0.9341723589627158 0.3568220897730901 0
vn 0.9341723589627158 -0.35682208977309 0
vn -0.9341723589627158 0.3568220897730901 0
vn -0.9341723589627158 -0.35682208977309 0
usemtl Purple
f 1//1 2//1 3//1
f 1//2 4//2 5//2
f 1//3 5//3 6//3
f 1//4 3//4 4//4
f 1//5 6//5 2//5
f 7//6 8//6 9//6
usemtl Red
f 7//7 4//7 10//7
f 7//8 5//8 4//8
f 7//9 10//9 8//9
f 7//10 9//10 5//10
f 2//11 11//11 3//11
f 2//12 12//12 11//12
f 2//13 6//13 12//13
usemtl Green
f 8//14 11//14 12//14
f 8//15 12//15 9//15
f 8//16 10//16 11//16
f 4//17 3//17 10//17
f 11//18 10//18 3//18
f 5//19 9//19 6//19
f 12//20 6//20 9//20